<mxfile host="Electron" modified="2023-08-27T09:38:57.522Z" agent="Mozilla/5.0 (Windows NT 10.0; Win64; x64) AppleWebKit/537.36 (KHTML, like Gecko) draw.io/21.6.8 Chrome/114.0.5735.289 Electron/25.5.0 Safari/537.36" etag="PPRZX6sY-VtytMpl3FZq" version="21.6.8" type="device">
  <diagram name="第 1 页" id="1HiN1_PNhQZ_fYjnmEiC">
    <mxGraphModel dx="1018" dy="672" grid="1" gridSize="10" guides="1" tooltips="1" connect="1" arrows="1" fold="1" page="1" pageScale="1" pageWidth="827" pageHeight="1169" math="0" shadow="0">
      <root>
        <mxCell id="0" />
        <mxCell id="1" parent="0" />
        <mxCell id="KMZQB-fk8LDtLsTNMtub-6" style="edgeStyle=orthogonalEdgeStyle;rounded=0;orthogonalLoop=1;jettySize=auto;html=1;entryX=0;entryY=0.5;entryDx=0;entryDy=0;startArrow=classic;startFill=1;" edge="1" parent="1" source="KMZQB-fk8LDtLsTNMtub-1" target="KMZQB-fk8LDtLsTNMtub-5">
          <mxGeometry relative="1" as="geometry" />
        </mxCell>
        <mxCell id="KMZQB-fk8LDtLsTNMtub-1" value="客户端" style="ellipse;whiteSpace=wrap;html=1;aspect=fixed;fillColor=#fad9d5;strokeColor=#ae4132;fontColor=#000000;fontFamily=楷体;fontSize=20;" vertex="1" parent="1">
          <mxGeometry x="60" y="200" width="80" height="80" as="geometry" />
        </mxCell>
        <mxCell id="KMZQB-fk8LDtLsTNMtub-2" value="客户端" style="ellipse;whiteSpace=wrap;html=1;aspect=fixed;fillColor=#fad9d5;strokeColor=#ae4132;fontColor=#000000;fontFamily=楷体;fontSize=20;" vertex="1" parent="1">
          <mxGeometry x="440" y="40" width="80" height="80" as="geometry" />
        </mxCell>
        <mxCell id="KMZQB-fk8LDtLsTNMtub-3" value="客户端" style="ellipse;whiteSpace=wrap;html=1;aspect=fixed;fillColor=#fad9d5;strokeColor=#ae4132;fontColor=#000000;fontFamily=楷体;fontSize=20;" vertex="1" parent="1">
          <mxGeometry x="440" y="200" width="80" height="80" as="geometry" />
        </mxCell>
        <mxCell id="KMZQB-fk8LDtLsTNMtub-4" value="客户端" style="ellipse;whiteSpace=wrap;html=1;aspect=fixed;fillColor=#fad9d5;strokeColor=#ae4132;fontColor=#000000;fontFamily=楷体;fontSize=20;" vertex="1" parent="1">
          <mxGeometry x="440" y="360" width="80" height="80" as="geometry" />
        </mxCell>
        <mxCell id="KMZQB-fk8LDtLsTNMtub-10" style="edgeStyle=orthogonalEdgeStyle;rounded=0;orthogonalLoop=1;jettySize=auto;html=1;entryX=0;entryY=0.5;entryDx=0;entryDy=0;" edge="1" parent="1" source="KMZQB-fk8LDtLsTNMtub-5" target="KMZQB-fk8LDtLsTNMtub-2">
          <mxGeometry relative="1" as="geometry" />
        </mxCell>
        <mxCell id="KMZQB-fk8LDtLsTNMtub-11" style="edgeStyle=orthogonalEdgeStyle;rounded=0;orthogonalLoop=1;jettySize=auto;html=1;entryX=0;entryY=0.5;entryDx=0;entryDy=0;startArrow=classic;startFill=1;" edge="1" parent="1" source="KMZQB-fk8LDtLsTNMtub-5" target="KMZQB-fk8LDtLsTNMtub-3">
          <mxGeometry relative="1" as="geometry" />
        </mxCell>
        <mxCell id="KMZQB-fk8LDtLsTNMtub-12" style="edgeStyle=orthogonalEdgeStyle;rounded=0;orthogonalLoop=1;jettySize=auto;html=1;entryX=0;entryY=0.5;entryDx=0;entryDy=0;" edge="1" parent="1" source="KMZQB-fk8LDtLsTNMtub-5" target="KMZQB-fk8LDtLsTNMtub-4">
          <mxGeometry relative="1" as="geometry" />
        </mxCell>
        <mxCell id="KMZQB-fk8LDtLsTNMtub-5" value="服务器" style="whiteSpace=wrap;html=1;aspect=fixed;fontFamily=楷体;fontSize=20;fillColor=#b0e3e6;strokeColor=#0e8088;fontColor=#000000;" vertex="1" parent="1">
          <mxGeometry x="240" y="200" width="80" height="80" as="geometry" />
        </mxCell>
        <mxCell id="KMZQB-fk8LDtLsTNMtub-8" value="uni-app&lt;br&gt;weapp.socket.io" style="text;html=1;strokeColor=none;fillColor=none;align=center;verticalAlign=middle;whiteSpace=wrap;rounded=0;" vertex="1" parent="1">
          <mxGeometry x="70" y="290" width="60" height="30" as="geometry" />
        </mxCell>
        <mxCell id="KMZQB-fk8LDtLsTNMtub-9" value="node.js&lt;br&gt;express&lt;br&gt;socket.io" style="text;html=1;strokeColor=none;fillColor=none;align=center;verticalAlign=middle;whiteSpace=wrap;rounded=0;" vertex="1" parent="1">
          <mxGeometry x="250" y="290" width="60" height="30" as="geometry" />
        </mxCell>
      </root>
    </mxGraphModel>
  </diagram>
</mxfile>
